<svg width="23" height="23" viewBox="0 0 23 23" fill="none" xmlns="http://www.w3.org/2000/svg">
<path d="M21.0833 21.0833L19.1667 19.1667M11.0208 20.125C12.2164 20.125 13.4003 19.8895 14.5048 19.432C15.6094 18.9744 16.613 18.3038 17.4584 17.4584C18.3038 16.613 18.9745 15.6094 19.432 14.5048C19.8895 13.4003 20.125 12.2164 20.125 11.0208C20.125 9.82525 19.8895 8.64138 19.432 7.53681C18.9745 6.43224 18.3038 5.42861 17.4584 4.58321C16.613 3.73781 15.6094 3.0672 14.5048 2.60967C13.4003 2.15214 12.2164 1.91666 11.0208 1.91666C8.60626 1.91666 6.29057 2.87584 4.58321 4.58321C2.87585 6.29057 1.91666 8.60625 1.91666 11.0208C1.91666 13.4354 2.87585 15.7511 4.58321 17.4584C6.29057 19.1658 8.60626 20.125 11.0208 20.125V20.125Z" stroke="white" stroke-width="1.5" stroke-linecap="round" stroke-linejoin="round"/>
</svg>
